# xmcd
#
# Track frame offsets:
#	150
#	26612
#	49132
#	76581
#	98144
#	118155
#	135218
#	154585
#	180140
#	204303
#	223129
#
# Disc length: 3251 seconds
#
# Revision: 1
# Processed by: cddbd v1.5.2PL0 Copyright (c) Steve Scherf et al.
# Submitted via: EZCDAudioConverter 8.0.2.1
#
DISCID=810cb10b
DTITLE=Bích Thảo - Không Bao Giờ Quên Anh
DYEAR=2008
DGENRE=
TTITLE0=Bích Thảo - Không Bao Giờ Quên Anh
TTITLE1=Bích Thảo, Quốc Đại - Giọng ca dĩ vãng
TTITLE2=Bích Thảo - Nhật ký đời tôi
TTITLE3=Bích Thảo - Đổi thay
TTITLE4=Bích Thảo, Hoài Linh - Không giờ rồi
TTITLE5=Bích Thảo - Cho anh hát lý duyên tình
TTITLE6=Bích Thảo - Lỡ lầm
TTITLE7=Bích Thảo - Ăn năn
TTITLE8=Bích Thảo - Hoa khế
TTITLE9=Bích Thảo - Ngàn thu vĩnh biệt
TTITLE10=Bích Thảo, Hoài Linh - Đi cày
EXTD=
EXTT0=
EXTT1=
EXTT2=
EXTT3=
EXTT4=
EXTT5=
EXTT6=
EXTT7=
EXTT8=
EXTT9=
EXTT10=
PLAYORDER=
